<svg width="334" height="394" viewBox="0 0 334 394" fill="none" xmlns="http://www.w3.org/2000/svg">
<path d="M28.5177 250.595C27.4404 252.151 26.1605 253.552 25.0546 255.085C24.6596 255.632 24.3472 256.23 23.9451 256.771C23.146 257.847 22.3675 258.967 21.6171 260.08C21.5735 260.145 21.1014 260.978 20.9854 260.978C20.9323 260.978 20.9565 260.516 20.9565 260.523C20.9565 260.673 21.0599 260.524 21.1297 260.436C21.2944 260.231 21.4915 260.061 21.6941 259.888C22.6979 259.03 23.3859 257.904 24.2914 256.957C24.7477 256.48 24.8179 255.832 25.0674 255.271C25.1154 255.162 25.1426 255.054 25.1989 254.953C25.2788 254.809 24.8964 254.868 24.8237 254.866C23.9614 254.851 23.0032 254.215 22.2809 253.795C21.3319 253.244 20.3214 252.768 19.411 252.154C19.0567 251.915 18.7405 251.619 18.388 251.374C18.2622 251.287 18.1072 251.235 18 251.128C17.9943 251.122 18.5197 251.183 18.5965 251.205C19.64 251.492 20.4369 252.362 21.3606 252.891C22.8432 253.741 24.3013 254.64 25.8498 255.373C27.0455 255.94 27.9513 256.763 28.9666 257.579C29.4174 257.942 29.9846 258.105 30.4641 258.432C31.1489 258.9 31.8248 259.43 32.449 259.975C32.5843 260.093 32.4785 260.056 32.4041 260.023C32.0951 259.885 31.8057 259.676 31.5255 259.49C29.6171 258.224 27.6855 256.875 25.6318 255.848C25.2178 255.641 24.0156 255.217 24.0156 254.607C24.0156 252.611 24.0156 250.616 24.0156 248.62C24.0156 248.086 24.0156 247.551 24.0156 247.017C24.0156 246.928 23.9393 247.219 23.9291 247.248C23.8817 247.38 23.9043 247.523 23.897 247.661C23.873 248.118 23.8425 248.566 23.8425 249.024C23.8425 250.187 23.9095 251.316 24.0445 252.471C24.1907 253.722 24.449 254.984 24.7435 256.207C25.0028 257.284 25.5263 258.291 25.8049 259.369C26.0464 260.303 26.2887 261.277 26.6098 262.187C26.6848 262.4 26.7729 262.664 26.7862 262.889C26.791 262.972 26.7219 262.653 26.7156 262.633C26.5233 262.03 26.2167 261.451 25.9749 260.866C25.4236 259.531 24.9063 258.182 24.5928 256.771C24.5496 256.577 24.5534 256.395 24.5223 256.2C24.4467 255.728 24.0655 255.848 23.6405 255.848C22.854 255.848 22.0756 255.951 21.29 255.963C20.6228 255.973 19.9187 255.986 19.2602 256.107C19.1637 256.125 18.8076 256.194 18.8209 256.194C19.2594 256.194 19.683 256.161 20.1196 256.107C22.5752 255.805 25.1223 255.703 27.5076 255.011C28.4481 254.738 29.3307 254.388 30.2429 254.033C30.4527 253.951 30.6695 253.844 30.8842 253.783C31.3969 253.636 30.5688 253.729 30.4385 253.747C28.6737 253.999 27.0253 254.821 25.2342 254.921C24.979 254.935 24.1015 254.983 23.9579 255.271" stroke="white" stroke-width="3" stroke-linecap="round"/>
<path d="M324.463 268.93C324.463 269.714 323.982 270.583 323.738 271.315C323.39 272.358 323.998 271.057 324.129 270.739C324.68 269.392 324.782 267.982 325.243 266.645C325.468 265.993 325.55 265.371 325.776 264.719C325.953 264.209 326.207 263.691 326.352 263.183C326.5 262.665 326.227 263.391 326.135 263.58C325.739 264.395 325.69 265.396 325.417 266.255C324.934 267.771 325.805 268.92 326.333 270.33C326.795 271.562 327.168 272.819 327.368 274.114C327.424 274.481 327.696 274.827 327.696 274.257C327.696 273.22 327.127 271.845 326.581 270.987C325.897 269.911 325.295 268.793 324.438 267.84C324.031 267.388 323.763 266.479 323.404 265.921C322.903 265.142 322.56 264.254 322.097 263.468C322.035 263.362 321.538 262.792 321.744 263.09C322.616 264.35 323.558 265.676 324.178 267.085C324.3 267.362 325.082 268.098 325.082 268.348C325.082 268.458 323.576 268.728 323.398 268.763C321.963 269.05 320.352 269.117 319.001 269.686C318.703 269.811 317.743 269.934 318.065 269.934C318.829 269.934 319.767 269.57 320.518 269.42C322.324 269.059 324.188 268.485 326.024 268.485" stroke="white" stroke-width="3" stroke-linecap="round"/>
<path d="M301.662 82C301.662 84.0356 301.262 86.1381 301.111 88.1747C301.02 89.3993 301.116 88.0776 301.241 87.7969C301.368 87.5125 301.181 85.8561 301.39 85.7965C302.112 85.5901 303.471 85.9155 304.053 86.2857C304.949 86.8561 302.37 86.6313 302.084 86.5706C301.056 86.3531 299.874 85.7903 298.82 85.7903C298.611 85.7903 298.288 85.8511 298.095 85.7655C297.652 85.5686 298.893 85.512 299.074 85.4806C299.645 85.3812 301.812 85.197 302.108 85.7903" stroke="white" stroke-width="3" stroke-linecap="round"/>
<path d="M326.891 12.9321C325.57 14.634 324.002 16.1658 322.646 17.8419C322.162 18.4405 321.779 19.0946 321.286 19.6866C320.307 20.863 319.353 22.0885 318.433 23.3058C318.38 23.3765 317.801 24.2877 317.659 24.2877C317.594 24.2877 317.624 23.7819 317.624 23.7898C317.624 23.9536 317.75 23.7904 317.836 23.6951C318.038 23.47 318.279 23.2848 318.527 23.0954C319.758 22.1568 320.601 20.9253 321.711 19.89C322.27 19.3683 322.356 18.6593 322.662 18.0453C322.721 17.9271 322.754 17.809 322.823 17.6981C322.921 17.5408 322.452 17.6049 322.363 17.6034C321.306 17.5859 320.132 16.8911 319.247 16.4321C318.084 15.829 316.845 15.3086 315.729 14.6365C315.295 14.375 314.908 14.0512 314.476 13.7843C314.321 13.689 314.131 13.6315 314 13.5143C313.993 13.5079 314.637 13.5753 314.731 13.5984C316.01 13.9123 316.987 14.8638 318.119 15.4431C319.936 16.3729 321.723 17.3553 323.621 18.1575C325.086 18.7769 326.196 19.6772 327.441 20.5703C327.993 20.9669 328.688 21.1452 329.276 21.5032C330.115 22.0143 330.944 22.5945 331.709 23.1901C331.875 23.3191 331.745 23.2789 331.654 23.2427C331.275 23.0919 330.92 22.8638 330.577 22.6605C328.238 21.2755 325.871 19.7996 323.354 18.6766C322.846 18.4502 321.373 17.9864 321.373 17.3193C321.373 15.1368 321.373 12.9543 321.373 10.7718C321.373 10.1873 321.373 9.60278 321.373 9.01829C321.373 8.92143 321.279 9.23941 321.267 9.27079C321.209 9.41582 321.236 9.57164 321.227 9.72319C321.198 10.2224 321.161 10.7124 321.161 11.2137C321.161 12.4853 321.243 13.7205 321.408 14.9837C321.587 16.3515 321.904 17.7314 322.265 19.0693C322.583 20.247 323.224 21.3483 323.566 22.5272C323.862 23.5487 324.159 24.6149 324.552 25.6099C324.644 25.8422 324.752 26.1309 324.768 26.3779C324.774 26.4679 324.69 26.1189 324.682 26.0974C324.446 25.4374 324.07 24.8052 323.774 24.165C323.098 22.7054 322.464 21.2291 322.08 19.6866C322.027 19.4739 322.032 19.2752 321.994 19.0623C321.901 18.5459 321.434 18.6766 320.913 18.6766C319.949 18.6766 318.995 18.79 318.032 18.8028C317.215 18.8137 316.352 18.8273 315.545 18.9606C315.426 18.9802 314.99 19.0553 315.006 19.0553C315.544 19.0553 316.063 19.0195 316.598 18.9606C319.607 18.6295 322.729 18.5186 325.653 17.7612C326.805 17.4626 327.887 17.0796 329.005 16.6916C329.262 16.6023 329.528 16.4851 329.791 16.418C330.419 16.2578 329.404 16.3591 329.245 16.3795C327.082 16.6552 325.062 17.5542 322.866 17.663C322.553 17.6785 321.478 17.7312 321.302 18.0453" stroke="#F4FF58" stroke-width="3" stroke-linecap="round"/>
<path d="M202.891 378.932C201.57 380.634 200.002 382.166 198.646 383.842C198.162 384.441 197.779 385.095 197.286 385.687C196.307 386.863 195.353 388.089 194.433 389.306C194.38 389.376 193.801 390.288 193.659 390.288C193.594 390.288 193.624 389.782 193.624 389.79C193.624 389.954 193.75 389.79 193.836 389.695C194.038 389.47 194.279 389.285 194.527 389.095C195.758 388.157 196.601 386.925 197.711 385.89C198.27 385.368 198.356 384.659 198.662 384.045C198.721 383.927 198.754 383.809 198.823 383.698C198.921 383.541 198.452 383.605 198.363 383.603C197.306 383.586 196.132 382.891 195.247 382.432C194.084 381.829 192.845 381.309 191.729 380.636C191.295 380.375 190.908 380.051 190.476 379.784C190.321 379.689 190.131 379.631 190 379.514C189.993 379.508 190.637 379.575 190.731 379.598C192.01 379.912 192.987 380.864 194.119 381.443C195.936 382.373 197.723 383.355 199.621 384.158C201.086 384.777 202.196 385.677 203.441 386.57C203.993 386.967 204.688 387.145 205.276 387.503C206.115 388.014 206.944 388.594 207.709 389.19C207.875 389.319 207.745 389.279 207.654 389.243C207.275 389.092 206.92 388.864 206.577 388.66C204.238 387.276 201.871 385.8 199.354 384.677C198.846 384.45 197.373 383.986 197.373 383.319C197.373 381.137 197.373 378.954 197.373 376.772C197.373 376.187 197.373 375.603 197.373 375.018C197.373 374.921 197.279 375.239 197.267 375.271C197.209 375.416 197.236 375.572 197.227 375.723C197.198 376.222 197.161 376.712 197.161 377.214C197.161 378.485 197.243 379.72 197.408 380.984C197.587 382.352 197.904 383.731 198.265 385.069C198.583 386.247 199.224 387.348 199.566 388.527C199.862 389.549 200.159 390.615 200.552 391.61C200.644 391.842 200.752 392.131 200.768 392.378C200.774 392.468 200.69 392.119 200.682 392.097C200.446 391.437 200.07 390.805 199.774 390.165C199.098 388.705 198.464 387.229 198.08 385.687C198.027 385.474 198.032 385.275 197.994 385.062C197.901 384.546 197.434 384.677 196.913 384.677C195.949 384.677 194.995 384.79 194.032 384.803C193.215 384.814 192.352 384.827 191.545 384.961C191.426 384.98 190.99 385.055 191.006 385.055C191.544 385.055 192.063 385.019 192.598 384.961C195.607 384.63 198.729 384.519 201.653 383.761C202.805 383.463 203.887 383.08 205.005 382.692C205.262 382.602 205.528 382.485 205.791 382.418C206.419 382.258 205.404 382.359 205.245 382.379C203.082 382.655 201.062 383.554 198.866 383.663C198.553 383.679 197.478 383.731 197.302 384.045" stroke="#F4FF58" stroke-width="3" stroke-linecap="round"/>
<path d="M82.912 2.11703C82.912 5.46234 83.2433 8.62311 83.9215 11.9181C84.0521 12.5528 84.0776 13.2085 84.172 13.8485C84.1971 14.019 84.4149 14.6972 84.4149 14.1872C84.4149 13.6995 84.4149 13.2118 84.4149 12.7241C84.4149 11.6903 84.3243 10.7529 84.1492 9.73706C84.0837 9.35726 83.9534 9.14512 83.7621 8.82266C83.5036 8.38702 83.2648 8.57882 82.8209 8.57882C81.3893 8.57882 79.9731 8.70074 78.5399 8.70074C77.1474 8.70074 75.4759 8.47075 74.1222 8.81589C73.5029 8.97378 75.4061 8.70074 76.0502 8.70074C77.6543 8.70074 79.2584 8.70074 80.8625 8.70074C85.2606 8.70074 94.032 9.18842 94.032 9.18842C94.032 9.18842 95.5043 9.36453 91.5195 9.18842C87.5348 9.01231 87.1998 9.55418 85.0221 9.55418C84.613 9.55418 82.9323 9.83104 82.7829 9.36453C82.6663 9.0003 84.0347 8.18652 84.2706 7.97599C86.3479 6.12239 88.894 4.65068 90.5631 2.4557C90.6109 2.39289 90.9176 2.0788 90.8819 2.05607C90.5784 1.86259 90.1421 2.21904 89.9331 2.38119C89.2819 2.8865 88.8391 3.59384 88.3012 4.18968C87.6204 4.9438 86.9297 5.68793 86.3428 6.50617C85.5456 7.6178 85.0063 8.86682 84.1416 9.94704C83.6215 10.5968 82.8188 11.1971 82.1985 11.7758C81.2691 12.6428 80.5314 13.6553 79.6329 14.5461C79.3611 14.8156 78.5025 15.4648 78.4108 15.8331C78.3698 15.998 78.278 16.0445 78.4032 15.867C78.754 15.3698 79.1218 14.8873 79.4963 14.4039C80.9404 12.54 82.9254 10.9524 84.1416 8.94458C84.3214 8.64775 85.8311 7.2154 84.9614 7.60345" stroke="#F4FF58" stroke-width="3" stroke-linecap="round"/>
<path d="M5.69 115C5.69 118.144 3.61091 121.56 2.48138 124.483C0.387682 129.902 5.59289 126.997 9.07687 126.587C13.0344 126.121 13.5304 127.298 11.5012 130.722C9.8201 133.559 7.37763 136.248 6.33172 139.385" stroke="#DFDFA7" stroke-width="3" stroke-linecap="round"/>
<path d="M275.332 247C271.807 250.916 267.839 255.93 265.207 260.476C263.562 263.317 272.221 259.193 273.692 259.193C279.449 259.193 272.252 270.165 271.196 272.348C268.513 277.893 265.064 285.618 265.064 291.921" stroke="#DFDFA7" stroke-width="3" stroke-linecap="round"/>
</svg>
