<svg width="390" height="673" viewBox="0 0 390 673" fill="none" xmlns="http://www.w3.org/2000/svg">
<path d="M0 10.3201C0 10.3201 29.2068 18.5538 48 16.63C66.4611 14.7402 75.1617 4.2277 93.5 1.14204C133.488 -5.58642 155.111 19.5418 195.5 21.2191C234.897 22.8551 256.623 8.14777 296 10.3201C314.652 11.3491 324.826 16.6826 343.5 16.63C361.786 16.5785 390 10.3201 390 10.3201V663.11C390 663.11 363.461 671.863 346 672.288C326.23 672.769 315.772 663.461 296 663.11C274.105 662.721 262.131 676.197 240.5 672.288C221.503 668.855 214.149 654.732 195.5 649.343C156.607 638.104 133.136 656.069 93.5 663.11C75.2908 666.344 65.4261 672.25 47 672.288C28.3814 672.326 0 663.11 0 663.11V10.3201Z" fill="white"/>
</svg>
