<svg width="390" height="936" viewBox="0 0 390 936" fill="none" xmlns="http://www.w3.org/2000/svg">
<path d="M0 31.2584C0 31.2584 30.5624 0.00885382 50.5 0.152679C70.8164 0.299238 79.8179 34.836 100 31.2584C138.134 24.4986 158.644 -2.25445 197 0.152679C215.144 1.29138 226.017 54.2898 244 50.4182C261.689 46.6098 274.145 0.95875 292 0.152679C311.929 -0.747016 327.064 18.8966 347 19.3125C368.074 19.7522 390 31.2584 390 31.2584V903.414C390 903.414 368.784 867.934 350.5 862.028C318.932 851.832 324.251 882.562 292 883.804C255.142 885.223 234.366 850.541 197.5 849.766C165.358 849.09 155.079 906.562 123 903.414C98.4194 901.001 87.5949 937.958 63 935.919C35.1927 933.612 0 903.414 0 903.414V31.2584Z" fill="white"/>
</svg>
