<svg width="390" height="1200" viewBox="0 0 390 1200" fill="none" xmlns="http://www.w3.org/2000/svg">
<path d="M0 1.63241C0 1.63241 29.5624 27.1548 49.5 27.3479C69.8164 27.5446 79.8179 6.43411 100 1.63241C138.134 -7.44029 159.144 24.1171 197.5 27.3479C215.644 28.8762 226.017 32.5441 244 27.3479C261.689 22.2364 270.145 2.71428 288 1.63241C307.929 0.424875 317.564 26.7896 337.5 27.3479C358.574 27.938 390 1.63241 390 1.63241V1172.2C390 1172.2 368.783 1124.58 350.5 1116.66C318.933 1102.97 310.751 1198.31 278.5 1199.97C241.642 1201.88 234.366 1101.24 197.5 1100.2C165.358 1099.29 155.079 1176.43 123 1172.2C98.4194 1168.96 90.5949 1119.39 66 1116.66C38.1927 1113.56 0 1172.2 0 1172.2V1.63241Z" fill="white"/>
</svg>
