<svg width="390" height="1027" viewBox="0 0 390 1027" fill="none" xmlns="http://www.w3.org/2000/svg">
<path d="M0 1.39707C0 1.39707 29.5624 23.24 49.5 23.4052C69.8164 23.5736 79.8179 5.50653 100 1.39707C138.134 -6.36765 159.144 20.6402 197.5 23.4052C215.644 24.7132 226.017 27.8523 244 23.4052C261.689 19.0307 270.145 2.32297 288 1.39707C307.929 0.363623 317.564 22.9275 337.5 23.4052C358.574 23.9103 390 1.39707 390 1.39707V1003.21C390 1003.21 368.784 962.454 350.5 955.671C318.932 943.958 310.751 1025.55 278.5 1026.98C241.642 1028.61 234.366 942.476 197.5 941.585C165.358 940.809 155.079 1006.82 123 1003.21C98.4194 1000.44 90.5949 958.014 66 955.671C38.1927 953.022 0 1003.21 0 1003.21V1.39707Z" fill="white"/>
</svg>
