<svg width="388" height="1266" viewBox="0 0 388 1266" fill="none" xmlns="http://www.w3.org/2000/svg">
<path d="M0 4.6218C0 4.6218 26.5965 36.6428 45.4103 38.7306C67.5163 41.1837 77.6469 8.53118 99.7051 4.6218C137.644 -2.10212 155.413 60.0032 193.487 60.4362C232.303 60.8776 250.771 15.4162 289.244 4.6218C326.308 -5.77725 389 4.6218 389 4.6218V1245.57C389 1245.57 326.633 1272.37 289.244 1264.58C250.236 1256.45 232.687 1201.04 193.487 1201.53C155.022 1202.01 138.019 1271.72 99.7051 1264.58C77.4829 1260.44 67.7027 1229.23 45.4103 1227.37C27.3905 1225.87 0 1244.94 0 1244.94V4.6218Z" fill="white"/>
</svg>
