<svg width="304" height="395" viewBox="0 0 304 395" fill="none" xmlns="http://www.w3.org/2000/svg">
<path fill-rule="evenodd" clip-rule="evenodd" d="M249.116 291.467C249.996 290.979 251.029 290.84 252.007 291.079C252.985 291.318 253.837 291.917 254.393 292.757L254.554 293.023L259.408 301.767C259.896 302.647 260.035 303.679 259.796 304.658C259.557 305.636 258.958 306.488 258.118 307.044L257.852 307.205L247.36 313.029C246.38 313.572 245.269 313.662 244.274 313.365L243.947 313.251L249.149 325.981C249.339 326.453 249.342 326.979 249.157 327.452C248.973 327.926 248.615 328.312 248.156 328.531C247.697 328.75 247.172 328.786 246.688 328.633C246.204 328.479 245.796 328.146 245.548 327.702L245.447 327.493L241.45 317.714L237.127 327.352C236.921 327.823 236.542 328.196 236.069 328.395C235.595 328.593 235.064 328.603 234.584 328.42C234.104 328.238 233.712 327.878 233.491 327.415C233.269 326.952 233.233 326.421 233.392 325.933L233.476 325.714L237.818 316.038L234.149 318.077C233.529 318.421 232.829 318.594 232.12 318.578C231.412 318.563 230.72 318.359 230.116 317.989L229.903 318.133L229.681 318.267L226.184 320.208C225.303 320.697 224.271 320.836 223.293 320.597C222.314 320.358 221.462 319.759 220.907 318.919L220.745 318.652L219.774 316.904C219.286 316.023 219.147 314.991 219.386 314.013C219.625 313.035 220.224 312.183 221.064 311.627L221.33 311.465L224.828 309.524C224.979 309.44 225.135 309.366 225.295 309.302C225.3 308.651 225.464 308.011 225.772 307.438C226.08 306.864 226.523 306.375 227.063 306.011L227.354 305.834L236.097 300.981C236.248 300.897 236.405 300.823 236.565 300.759C236.57 300.108 236.733 299.468 237.041 298.895C237.35 298.321 237.793 297.832 238.333 297.468L238.624 297.291L249.116 291.467ZM226.769 313.021L223.272 314.963L224.242 316.711L227.74 314.77L226.769 313.021ZM238.039 304.478L229.296 309.331L232.207 314.577L240.951 309.724L238.039 304.478ZM251.057 294.965L240.565 300.788L245.418 309.532L255.91 303.708L251.057 294.965Z" fill="white"/>
<path d="M16 284H19V287H16V284ZM28 284H31V287H28V284ZM38.9922 299C39.5391 299 40.0547 299.102 40.5391 299.305C41.0234 299.508 41.4453 299.797 41.8047 300.172C42.1641 300.547 42.4531 300.977 42.6719 301.461C42.8906 301.945 43 302.461 43 303.008V314H40V303.008C40 302.727 39.9062 302.492 39.7188 302.305C39.5312 302.117 39.2891 302.016 38.9922 302H8.00781C7.72656 302 7.49219 302.094 7.30469 302.281C7.11719 302.469 7.01563 302.711 7 303.008V314H4V303.008C4 302.461 4.10156 301.945 4.30469 301.461C4.50781 300.977 4.79688 300.555 5.17188 300.195C5.54688 299.836 5.96875 299.547 6.4375 299.328C6.90625 299.109 7.42969 299 8.00781 299H16V296H14.0078C13.4609 296 12.9453 295.898 12.4609 295.695C11.9766 295.492 11.5469 295.203 11.1719 294.828C10.7969 294.453 10.5156 294.031 10.3281 293.563C10.1406 293.094 10.0313 292.57 10 291.992V290H7V284H10V282.008C10 281.461 10.1016 280.945 10.3047 280.461C10.5078 279.977 10.7969 279.555 11.1719 279.195C11.5469 278.836 11.9688 278.547 12.4375 278.328C12.9062 278.109 13.4297 278 14.0078 278H22V273.102C21.5469 272.836 21.1875 272.469 20.9219 272C20.6563 271.531 20.5156 271.031 20.5 270.5C20.5 270.078 20.5781 269.688 20.7344 269.328C20.8906 268.969 21.1016 268.656 21.3672 268.391C21.6328 268.125 21.9531 267.906 22.3281 267.734C22.7031 267.562 23.0937 267.484 23.5 267.5C23.9219 267.5 24.3125 267.578 24.6719 267.734C25.0312 267.891 25.3438 268.102 25.6094 268.367C25.875 268.633 26.0937 268.953 26.2656 269.328C26.4375 269.703 26.5156 270.094 26.5 270.5C26.5 271.031 26.3672 271.531 26.1016 272C25.8359 272.469 25.4688 272.836 25 273.102V278H32.9922C33.5391 278 34.0547 278.102 34.5391 278.305C35.0234 278.508 35.4453 278.797 35.8047 279.172C36.1641 279.547 36.4531 279.977 36.6719 280.461C36.8906 280.945 37 281.461 37 282.008V284H40V290H37V291.992C37 292.539 36.8984 293.055 36.6953 293.539C36.4922 294.023 36.2031 294.453 35.8281 294.828C35.4531 295.203 35.0234 295.484 34.5391 295.672C34.0547 295.859 33.5391 295.969 32.9922 296H31V299H38.9922ZM13 291.992C13 292.273 13.0938 292.508 13.2812 292.695C13.4688 292.883 13.7109 292.984 14.0078 293H32.9922C33.2734 293 33.5078 292.906 33.6953 292.719C33.8828 292.531 33.9844 292.289 34 291.992V282.008C34 281.727 33.9062 281.492 33.7188 281.305C33.5312 281.117 33.2891 281.016 32.9922 281H14.0078C13.7266 281 13.4922 281.094 13.3047 281.281C13.1172 281.469 13.0156 281.711 13 282.008V291.992ZM19 299H28V296H19V299Z" fill="white"/>
<path fill-rule="evenodd" clip-rule="evenodd" d="M6.42216 39.4C7.17149 41.1333 8.44416 42 10.2402 42H37.7602C39.5575 42 40.8302 41.1333 41.5782 39.4C42.3262 37.6667 42.0795 36.0887 40.8382 34.666L30.9302 22V9.99999H34.2662C34.5229 10.0072 34.7784 9.96058 35.0161 9.8631C35.2538 9.76562 35.4684 9.61944 35.6462 9.43399C35.8271 9.24268 35.9685 9.01752 36.0622 8.77144C36.1558 8.52536 36.2 8.26319 36.1922 7.99999C36.2 7.73679 36.1558 7.47463 36.0622 7.22855C35.9685 6.98247 35.8271 6.75731 35.6462 6.56599C35.4684 6.38054 35.2538 6.23437 35.0161 6.13689C34.7784 6.03941 34.5229 5.99278 34.2662 5.99999H13.7342C13.4774 5.99278 13.2219 6.03941 12.9842 6.13689C12.7466 6.23437 12.5319 6.38054 12.3542 6.56599C12.1736 6.75747 12.0326 6.9827 11.9392 7.22878C11.8459 7.47485 11.802 7.73693 11.8102 7.99999C11.8102 8.57866 11.9922 9.05666 12.3562 9.43399C12.5339 9.61944 12.7486 9.76562 12.9862 9.8631C13.2239 9.96058 13.4794 10.0072 13.7362 9.99999H17.0722V22L7.16016 34.666C5.92016 36.0873 5.67416 37.6653 6.42216 39.4ZM15.3362 30.554H32.6642L27.0802 23.466V9.99999H20.9202V23.466L15.3362 30.554Z" fill="white"/>
<path d="M299.438 31.4169C298.318 30.0683 296.716 29.211 294.972 29.0281C294.861 28.0209 294.525 27.0515 293.989 26.1919C293.452 25.3322 292.729 24.6044 291.873 24.0624C291.017 23.5203 290.05 23.178 289.043 23.0608C288.037 22.9435 287.017 23.0544 286.059 23.3852C285.101 23.7159 284.23 24.2581 283.511 24.9714C282.791 25.6848 282.241 26.551 281.902 27.5058C281.563 28.4606 281.443 29.4796 281.551 30.4871C281.659 31.4946 281.993 32.4647 282.528 33.3256C282.528 33.3306 282.528 33.3357 282.528 33.3406L269.345 46.5331H269.326C268.465 45.9987 267.495 45.6649 266.487 45.5566C265.48 45.4483 264.461 45.5681 263.506 45.9074C262.551 46.2466 261.685 46.7964 260.972 47.5161C260.258 48.2357 259.716 49.1068 259.385 50.0646C259.055 51.0224 258.944 52.0423 259.061 53.0488C259.178 54.0553 259.521 55.0225 260.063 55.8786C260.605 56.7348 261.332 57.4579 262.192 57.9943C263.052 58.5308 264.021 58.8668 265.028 58.9775C265.139 59.9847 265.475 60.9541 266.011 61.8138C266.548 62.6734 267.271 63.4013 268.127 63.9433C268.983 64.4853 269.951 64.8277 270.957 64.9449C271.964 65.0621 272.983 64.9512 273.941 64.6205C274.899 64.2897 275.77 63.7476 276.49 63.0342C277.209 62.3209 277.759 61.4547 278.098 60.4998C278.438 59.545 278.558 58.5261 278.449 57.5186C278.341 56.5111 278.007 55.5409 277.473 54.68V54.665L290.663 41.4725H290.682C292.044 42.3305 293.668 42.6734 295.261 42.4393C296.854 42.2052 298.31 41.4096 299.368 40.1959C300.426 38.9823 301.015 37.4306 301.029 35.8208C301.043 34.2109 300.482 32.6491 299.446 31.4169H299.438ZM297.081 38.2175C296.495 38.8891 295.688 39.3297 294.806 39.4603C293.924 39.5909 293.024 39.4029 292.268 38.93C291.693 38.5648 291.01 38.4065 290.333 38.4811C289.655 38.5558 289.023 38.8589 288.541 39.3406L275.341 52.5406C274.86 53.0238 274.559 53.6562 274.485 54.3337C274.412 55.0112 274.572 55.6934 274.938 56.2681C275.257 56.7817 275.447 57.3648 275.492 57.9678C275.538 58.5708 275.436 59.1758 275.197 59.7312C274.958 60.2866 274.588 60.7759 274.119 61.1574C273.65 61.5389 273.095 61.8013 272.503 61.9223C271.91 62.0432 271.297 62.019 270.716 61.8518C270.135 61.6847 269.603 61.3794 269.165 60.9622C268.728 60.5449 268.397 60.028 268.203 59.4555C268.008 58.8831 267.955 58.272 268.047 57.6744C268.081 57.4603 268.067 57.2414 268.008 57.0329C267.949 56.8243 267.846 56.6311 267.705 56.4664C267.564 56.3018 267.389 56.1696 267.192 56.0791C266.995 55.9885 266.781 55.9417 266.564 55.9419C266.487 55.9425 266.41 55.9488 266.333 55.9606C265.736 56.0524 265.126 55.9987 264.554 55.8039C263.983 55.6092 263.466 55.2792 263.05 54.8421C262.633 54.405 262.328 53.8737 262.16 53.2934C261.993 52.7131 261.968 52.1009 262.088 51.509C262.208 50.917 262.469 50.3628 262.85 49.8936C263.23 49.4243 263.718 49.0537 264.272 48.8135C264.826 48.5733 265.43 48.4705 266.033 48.5139C266.635 48.5572 267.218 48.7454 267.732 49.0625C268.308 49.4277 268.99 49.586 269.668 49.5114C270.345 49.4367 270.977 49.1336 271.46 48.6519L284.66 35.4519C285.138 34.9692 285.439 34.3383 285.512 33.6624C285.585 32.9866 285.427 32.3059 285.063 31.7319C284.743 31.2183 284.553 30.6352 284.508 30.0322C284.463 29.4292 284.564 28.8242 284.803 28.2688C285.042 27.7134 285.412 27.2241 285.882 26.8426C286.351 26.4611 286.905 26.1987 287.498 26.0778C288.09 25.9568 288.703 25.981 289.284 26.1482C289.865 26.3153 290.397 26.6206 290.835 27.0378C291.273 27.4551 291.603 27.972 291.798 28.5445C291.992 29.117 292.046 29.7281 291.953 30.3256C291.917 30.559 291.936 30.7977 292.009 31.0223C292.082 31.2469 292.208 31.451 292.375 31.6181C292.542 31.7851 292.746 31.9103 292.97 31.9835C293.195 32.0567 293.434 32.0759 293.667 32.0394C294.431 31.9158 295.214 32.0314 295.909 32.3703C296.604 32.7093 297.178 33.2549 297.551 33.9325C297.924 34.6101 298.079 35.3865 297.993 36.1553C297.908 36.9241 297.587 37.6477 297.074 38.2269L297.081 38.2175Z" fill="white"/>
<path d="M270.619 109.007L248.154 111.093L240.605 121.969L243.473 140.219L243.497 140.227L244.709 148.172L260.313 153.427L271.525 152.455L283.51 146.745L284.014 138.813L284.727 130.832L283.787 127.903L280.464 126.906L280.515 117.814L280.541 117.783L280.459 117.528L270.619 109.007ZM259.75 112.474C262.303 112.501 264.791 113.214 266.844 114.472C269.348 116.006 271.227 118.395 271.627 121.337C271.852 122.997 271.525 124.658 270.769 126.125C273.031 126.842 274.704 127.434 276.014 128.471C277.542 129.681 278.44 131.449 279.209 134.312L279.348 134.831L278.949 135.191C275.663 138.15 271.311 140.134 266.639 140.682C261.829 141.246 256.969 140.159 253.111 137.827C249.254 135.496 246.38 131.879 245.722 127.428C244.696 120.488 249.968 113.438 258.067 112.556C258.626 112.495 259.188 112.468 259.75 112.474V112.474ZM259.73 114.227C259.581 114.226 259.432 114.226 259.282 114.23C258.94 114.238 258.598 114.26 258.257 114.298C256.362 114.504 254.654 115.086 253.183 115.94C253.583 118.058 254.978 119.382 257.027 120.264C257.879 119.603 258.942 119.158 260.147 119.052H260.148C260.288 119.04 260.429 119.033 260.57 119.031C260.544 117.346 261.012 115.875 261.617 114.394C260.993 114.292 260.362 114.236 259.73 114.227L259.73 114.227ZM263.343 114.802C262.682 116.372 262.235 117.7 262.329 119.277C262.803 119.421 263.255 119.625 263.666 119.886C264.138 120.185 264.561 120.569 264.893 121.022L269.462 119.951C268.814 118.328 267.561 116.966 265.929 115.966C265.142 115.483 264.268 115.091 263.343 114.802ZM251.647 116.996C248.527 119.515 246.897 123.399 247.455 127.172V127.172C247.472 127.288 247.491 127.404 247.512 127.519C250.146 128.49 252.392 128.671 255.531 127.18C255.202 126.574 254.979 125.907 254.891 125.189C254.735 123.919 255.072 122.653 255.776 121.602C253.844 120.618 252.296 119.107 251.647 116.996L251.647 116.996ZM278.751 119.919L278.715 126.381L274.417 125.091L278.751 119.919ZM260.627 120.783C260.518 120.783 260.41 120.788 260.302 120.797C260.253 120.802 260.205 120.808 260.157 120.814L261.471 122.75C262.305 122.59 263.212 122.796 263.852 123.365C263.869 123.245 263.872 123.124 263.86 123.006C263.789 122.346 263.388 121.784 262.728 121.366C262.233 121.052 261.603 120.846 260.953 120.795C260.845 120.787 260.736 120.782 260.627 120.783H260.627ZM258.441 121.406C257.158 122.199 256.465 123.625 256.63 124.976V124.976C256.667 125.273 256.738 125.565 256.843 125.845L259.474 124.783C259.502 124.374 259.661 123.972 259.948 123.625L258.441 121.406ZM269.899 121.648L265.58 122.661C265.588 122.714 265.596 122.767 265.602 122.821C265.663 123.388 265.579 123.952 265.379 124.466L268.654 126.241C269.633 124.896 270.096 123.254 269.899 121.648H269.899ZM264.355 125.904C264.332 125.924 264.307 125.943 264.283 125.962C264.16 126.162 264.001 126.348 263.805 126.514C263.591 126.694 263.35 126.835 263.093 126.937L262.832 129.23C263.008 129.226 263.184 129.218 263.359 129.201C264.959 129.042 266.333 128.435 267.406 127.558L264.356 125.904L264.355 125.904ZM260.13 126.408L257.808 127.345C258.113 127.658 258.469 127.94 258.867 128.188C259.519 128.594 260.281 128.892 261.087 129.065L261.317 127.052C260.902 126.949 260.512 126.753 260.19 126.464C260.169 126.446 260.15 126.427 260.13 126.408ZM269.773 127.649C268.328 129.416 266.153 130.684 263.533 130.944C263.464 130.951 263.396 130.955 263.327 130.96C264.095 132.654 264.299 134.023 263.959 135.328C263.636 136.569 262.914 137.644 261.968 138.957C263.439 139.116 264.942 139.117 266.435 138.942C270.551 138.459 274.4 136.747 277.354 134.239C276.679 131.914 275.993 130.69 274.926 129.845C273.872 129.011 272.247 128.435 269.773 127.649L269.773 127.649ZM256.598 128.607C253.411 130.177 250.699 130.27 248.072 129.541C249.132 132.336 251.26 134.661 254.017 136.328C255.807 137.41 257.858 138.203 260.024 138.651C261.206 136.998 262.01 135.861 262.264 134.886C262.53 133.863 262.363 132.81 261.344 130.897C260.118 130.723 258.95 130.304 257.941 129.676C257.452 129.371 256.999 129.013 256.598 128.607L256.598 128.607ZM282.128 140.856L281.826 145.606L272.695 149.957L274.02 144.058L282.128 140.856L282.128 140.856ZM245.37 140.889L258.833 145.646L259.433 151.282L246.28 146.853L245.37 140.889ZM272.118 144.532L270.717 150.767L261.228 151.589L260.614 145.828L272.118 144.532Z" fill="white"/>
<path d="M133.76 351.3L131.36 352.1C127.247 353.529 122.855 353.968 118.54 353.38C114.006 352.676 109.366 353.302 105.18 355.18C102.961 356.125 101.013 357.61 99.5149 359.5C98.0164 361.389 97.0143 363.624 96.6 366C96.1785 368.285 96.2216 370.631 96.7268 372.899C97.2319 375.167 98.1887 377.31 99.54 379.2C99.42 379.62 99.3 380.04 99.2 380.46C98.3877 383.914 97.9849 387.452 98 391H102C102.19 388.096 102.584 385.209 103.18 382.36C105.955 383.858 109.067 384.623 112.22 384.58C115.161 384.578 118.072 383.986 120.78 382.84C136 376.34 134 354.72 134 353.82L133.76 351.3ZM119.22 379.16C114 381.38 107.76 381 104.26 378.26C104.852 376.282 105.663 374.377 106.68 372.58C107.471 371.287 108.403 370.086 109.46 369C110.54 367.902 111.757 366.948 113.08 366.16C115.814 364.525 118.846 363.451 122 363V361C118.371 360.872 114.765 361.613 111.48 363.16C108.122 364.801 105.274 367.324 103.24 370.46C102.486 371.658 101.818 372.908 101.24 374.2C100.313 371.829 100.05 369.249 100.48 366.74C100.762 364.983 101.486 363.327 102.584 361.927C103.683 360.527 105.12 359.431 106.76 358.74C109.151 357.62 111.76 357.047 114.4 357.06C115.64 357.06 116.86 357.18 118.14 357.28C122.149 357.797 126.219 357.56 130.14 356.58C130 362.1 129 375 119.22 379.16Z" fill="white"/>
<path d="M64.7534 119.773L71.964 116.308L69.9654 102.632C69.685 100.711 68.9425 98.8862 67.8017 97.3149C66.6609 95.7436 65.1558 94.4726 63.4157 93.611L55.8751 89.8788C55.7117 89.7978 55.532 89.7552 55.3496 89.754C55.1672 89.7529 54.9869 89.7934 54.8225 89.8724C54.6581 89.9514 54.5139 90.0669 54.4008 90.21C54.2877 90.3531 54.2087 90.5201 54.1698 90.6983L52.3726 98.9178C51.9581 100.815 52.0101 102.784 52.5242 104.656C53.0383 106.529 53.9992 108.249 55.3242 109.668L64.7534 119.773ZM64.7534 119.773L61.078 125.977C61.078 125.977 54.0076 120.499 58.1512 112.96M67.3522 125.181C69.0847 128.786 73.5563 128.856 73.5563 128.856C73.5563 128.856 76.2954 125.321 74.5628 121.716M71.5467 106.523C80.0217 107.998 79.8815 116.941 79.8815 116.941L72.741 115.935" stroke="white" stroke-width="1.5" stroke-linecap="round" stroke-linejoin="round"/>
<path d="M63.1612 107.225C62.205 107.684 61.1055 107.745 60.1044 107.394C59.1034 107.042 58.2829 106.308 57.8234 105.352C57.3639 104.396 57.303 103.296 57.6542 102.295C58.0055 101.294 58.7399 100.473 59.6961 100.014C60.6523 99.5544 61.7519 99.4936 62.7529 99.8448C63.754 100.196 64.5745 100.931 65.034 101.887C65.4935 102.843 65.5543 103.942 65.2031 104.943C64.8519 105.945 64.1174 106.765 63.1612 107.225Z" stroke="white" stroke-width="1.5" stroke-linecap="round" stroke-linejoin="round"/>
</svg>
