<svg width="277" height="572" viewBox="0 0 277 572" fill="none" xmlns="http://www.w3.org/2000/svg">
<path d="M21.7222 9.27396C21.4535 9.27498 21.1849 9.28279 20.9165 9.2974C9.74603 9.90987 1.94472 20.3941 2.56778 31.1498C3.37019 44.9927 16.3363 54.6377 29.6502 53.7817H29.653C36.1194 53.3649 42.2984 50.6457 47.0964 46.3227L47.5037 45.9566L47.3513 45.4292L44.5534 35.8109L44.4393 35.4183L44.0672 35.2542L36.3707 31.8472C37.7388 29.5543 38.4705 26.8494 38.3394 24.1069C37.9363 15.6716 30.5465 9.62252 22.5279 9.28877C22.2607 9.27752 21.9909 9.27274 21.7222 9.27396ZM21.7339 11.0259C21.844 11.0252 21.9552 11.0273 22.0649 11.0287L21.4175 15.224L21.3913 15.3881L21.4058 15.4467C18.8996 15.6442 16.3851 16.5251 14.2925 18.1128L12.9449 13.6803C15.2933 12.1642 18.0238 11.2104 21.0133 11.0464C21.2539 11.0331 21.4942 11.0273 21.7339 11.0259ZM23.8199 11.1577C27.4077 11.6339 30.7574 13.3723 33.1274 15.9741L29.9399 17.8435L29.9048 17.8639C28.084 16.373 25.6979 15.5492 23.1931 15.4205L23.1724 15.3326L23.82 11.1579L23.8199 11.1577ZM11.4449 14.7671L12.7896 19.1967L12.8481 19.3931C11.4756 20.8184 10.3905 22.6321 9.769 24.8423C9.70572 25.0673 9.64853 25.2913 9.59322 25.5131L5.79915 22.399C7.03384 19.4161 8.97475 16.7599 11.4448 14.7671L11.4449 14.7671ZM34.2378 17.3568C35.6072 19.3099 36.468 21.6282 36.5904 24.1889C36.5927 24.2377 36.5945 24.2868 36.5962 24.3355L33.2358 24.6049C33.2242 24.4105 33.211 24.2149 33.189 24.019C32.9703 22.0671 32.2496 20.4379 31.1881 19.1411L34.2378 17.3568ZM23.3511 21.5699C23.571 21.5735 23.7885 21.5934 24.0046 21.6255L23.8667 25.308C23.4667 25.3634 23.0791 25.4873 22.7211 25.6743L18.6226 24.0043C19.6789 22.5971 21.2618 21.631 23.1167 21.5727C23.1948 21.5699 23.273 21.5689 23.3511 21.5699ZM25.7389 22.2115C27.0871 22.9556 28.0669 24.2891 28.103 25.8999C28.1166 26.5032 27.9682 27.1196 27.7076 27.6577C27.5659 27.2465 27.3494 26.8651 27.0689 26.5327C26.6676 26.0551 26.1471 25.6922 25.5602 25.4808L25.6158 25.4839L25.739 22.2114L25.7389 22.2115ZM5.16644 24.1451L9.20069 27.4615C8.83478 29.877 8.95975 32.0691 9.47912 34.021L4.5894 33.4059C4.45419 32.6254 4.36323 31.838 4.31697 31.0473C4.18056 28.6923 4.48478 26.3511 5.16653 24.145L5.16644 24.1451ZM17.7554 25.5396L21.3209 26.9985C20.8765 27.7438 20.7267 28.6244 20.8843 29.4654L18.1802 31.8208C17.616 30.811 17.2727 29.667 17.2279 28.4282C17.1919 27.4314 17.3833 26.443 17.7553 25.5395L17.7554 25.5396ZM36.526 26.0962C36.2117 28.8136 34.9669 31.3729 33.0807 33.2418L31.0269 31.1877C32.2803 29.9439 33.0005 28.2423 33.2008 26.3655L36.5259 26.096L36.526 26.0962ZM21.6197 31.147C22.3226 32.2015 23.4926 32.9157 24.7251 33.1654L24.9859 36.2006C22.7522 35.9509 20.6559 34.8772 19.2057 33.2535L21.6197 31.147ZM29.6147 32.2544L31.7358 34.3755C30.2999 35.3993 28.6082 36.0656 26.7437 36.2183L26.4888 33.2183C27.6932 33.0942 28.734 32.7557 29.6148 32.2542L29.6147 32.2544ZM4.98503 35.2222L10.1148 35.8667C11.0415 38.035 12.494 39.8471 14.2954 41.2808L9.23894 43.3812C7.27862 41.0253 5.79775 38.2726 4.98503 35.2222ZM42.9388 36.6693L42.9828 36.6899L45.5053 45.3677C42.6652 47.8277 39.3416 49.7065 35.7845 50.8433L36.5902 42.6839L36.6048 42.5375C39.0602 41.1505 41.2505 39.205 42.9389 36.6693H42.9388ZM16.0063 42.4702C18.4658 43.9535 21.3761 44.8489 24.4056 45.1098L20.2806 50.8286C16.5649 49.5989 13.1737 47.5095 10.4809 44.7612L16.0063 42.4702ZM34.7533 43.4574L33.971 51.353C32.5188 51.7061 31.0362 51.9363 29.5385 52.0327C27.0032 52.196 24.482 51.9507 22.0678 51.3472L26.348 45.4087L26.5093 45.186C29.3042 45.156 32.1362 44.5926 34.7533 43.4575V43.4574Z" fill="white"/>
<path d="M246.722 300.274C246.453 300.275 246.185 300.283 245.917 300.297C234.746 300.91 226.945 311.394 227.568 322.15C228.37 335.993 241.336 345.638 254.65 344.782H254.653C261.119 344.365 267.298 341.646 272.096 337.323L272.504 336.957L272.351 336.429L269.553 326.811L269.439 326.418L269.067 326.254L261.371 322.847C262.739 320.554 263.47 317.849 263.339 315.107C262.936 306.672 255.547 300.623 247.528 300.289C247.261 300.278 246.991 300.273 246.722 300.274ZM246.734 302.026C246.844 302.025 246.955 302.027 247.065 302.029L246.418 306.224L246.391 306.388L246.406 306.447C243.9 306.644 241.385 307.525 239.293 309.113L237.945 304.68C240.293 303.164 243.024 302.21 246.013 302.046C246.254 302.033 246.494 302.027 246.734 302.026ZM248.82 302.158C252.408 302.634 255.757 304.372 258.127 306.974L254.94 308.843L254.905 308.864C253.084 307.373 250.698 306.549 248.193 306.42L248.172 306.333L248.82 302.158L248.82 302.158ZM236.445 305.767L237.79 310.197L237.848 310.393C236.476 311.818 235.39 313.632 234.769 315.842C234.706 316.067 234.649 316.291 234.593 316.513L230.799 313.399C232.034 310.416 233.975 307.76 236.445 305.767L236.445 305.767ZM259.238 308.357C260.607 310.31 261.468 312.628 261.59 315.189C261.593 315.238 261.595 315.287 261.596 315.335L258.236 315.605C258.224 315.41 258.211 315.215 258.189 315.019C257.97 313.067 257.25 311.438 256.188 310.141L259.238 308.357ZM248.351 312.57C248.571 312.573 248.788 312.593 249.005 312.626L248.867 316.308C248.467 316.363 248.079 316.487 247.721 316.674L243.623 315.004C244.679 313.597 246.262 312.631 248.117 312.573C248.195 312.57 248.273 312.569 248.351 312.57ZM250.739 313.211C252.087 313.956 253.067 315.289 253.103 316.9C253.117 317.503 252.968 318.12 252.708 318.658C252.566 318.246 252.349 317.865 252.069 317.533C251.668 317.055 251.147 316.692 250.56 316.481L250.616 316.484L250.739 313.211L250.739 313.211ZM230.166 315.145L234.201 318.461C233.835 320.877 233.96 323.069 234.479 325.021L229.589 324.406C229.454 323.625 229.363 322.838 229.317 322.047C229.181 319.692 229.485 317.351 230.167 315.145L230.166 315.145ZM242.755 316.54L246.321 317.999C245.876 318.744 245.727 319.624 245.884 320.465L243.18 322.821C242.616 321.811 242.273 320.667 242.228 319.428C242.192 318.431 242.383 317.443 242.755 316.539L242.755 316.54ZM261.526 317.096C261.212 319.814 259.967 322.373 258.081 324.242L256.027 322.188C257.28 320.944 258.001 319.242 258.201 317.366L261.526 317.096L261.526 317.096ZM246.62 322.147C247.323 323.201 248.493 323.916 249.725 324.165L249.986 327.201C247.752 326.951 245.656 325.877 244.206 324.254L246.62 322.147ZM254.615 323.254L256.736 325.376C255.3 326.399 253.608 327.066 251.744 327.218L251.489 324.218C252.693 324.094 253.734 323.756 254.615 323.254L254.615 323.254ZM229.985 326.222L235.115 326.867C236.041 329.035 237.494 330.847 239.295 332.281L234.239 334.381C232.279 332.025 230.798 329.273 229.985 326.222ZM267.939 327.669L267.983 327.69L270.505 336.368C267.665 338.828 264.342 340.706 260.785 341.843L261.59 333.684L261.605 333.537C264.06 332.15 266.251 330.205 267.939 327.669H267.939ZM241.006 333.47C243.466 334.953 246.376 335.849 249.406 336.11L245.281 341.829C241.565 340.599 238.174 338.51 235.481 335.761L241.006 333.47ZM259.753 334.457L258.971 342.353C257.519 342.706 256.036 342.936 254.539 343.033C252.003 343.196 249.482 342.951 247.068 342.347L251.348 336.409L251.509 336.186C254.304 336.156 257.136 335.593 259.753 334.457V334.457Z" fill="white"/>
<g clip-path="url(#clip0_240_189)">
<path d="M245.492 12.5769L247.325 24.5201L256.559 32.313L244.616 34.1462L236.823 43.3804L234.99 31.4373L225.756 23.6444L237.699 21.8112L245.492 12.5769ZM242.875 21.8757L239.774 25.5117L235.055 26.2612L238.691 29.3621L239.44 34.0816L242.541 30.4457L247.261 29.6962L243.625 26.5953L242.875 21.8757ZM262.035 27.6209L261.094 21.6632L256.501 17.7529L262.454 16.8309L266.37 12.2192L267.286 18.1908L271.903 22.0872L265.926 23.0231L262.035 27.6209ZM254.45 54.574L253.509 48.6162L248.916 44.7059L254.869 43.7839L258.784 39.1722L259.701 45.1438L264.318 49.0403L258.341 49.9761L254.45 54.574Z" fill="white"/>
</g>
<g clip-path="url(#clip1_240_189)">
<path d="M66.8324 406.133L68.5129 417.081L76.9776 424.224L66.0297 425.905L58.8862 434.369L57.2058 423.422L48.7411 416.278L59.689 414.598L66.8324 406.133ZM64.4337 414.657L61.5912 417.99L57.265 418.677L60.5979 421.519L61.285 425.846L64.1275 422.513L68.4537 421.825L65.1208 418.983L64.4337 414.657ZM81.9971 419.923L81.1342 414.462L76.9245 410.878L82.3808 410.032L85.9702 405.805L86.8104 411.279L91.0428 414.851L85.5639 415.708L81.9971 419.923ZM75.0441 444.63L74.1813 439.169L69.9716 435.584L75.4279 434.739L79.0172 430.512L79.8575 435.986L84.0898 439.558L78.6109 440.415L75.0441 444.63Z" fill="white"/>
</g>
<g clip-path="url(#clip2_240_189)">
<path fill-rule="evenodd" clip-rule="evenodd" d="M50.06 209.667C50.6574 208.857 51.5385 208.301 52.5274 208.112C53.5164 207.922 54.5405 208.113 55.3952 208.645L55.653 208.82L63.7029 214.753C64.5136 215.35 65.0691 216.231 65.2586 217.22C65.4481 218.209 65.2577 219.233 64.7253 220.088L64.5499 220.346L57.4308 230.006C56.7663 230.907 55.7925 231.451 54.7641 231.595L54.4203 231.627L64.4454 241.04C64.8138 241.39 65.0352 241.868 65.0644 242.375C65.0936 242.883 64.9284 243.382 64.6025 243.772C64.2766 244.162 63.8144 244.414 63.3099 244.475C62.8053 244.537 62.2962 244.404 61.8861 244.104L61.7075 243.955L54.0049 236.724L54.0821 247.288C54.0906 247.801 53.9014 248.298 53.5536 248.676C53.2058 249.053 52.7261 249.283 52.2139 249.317C51.7016 249.35 51.1959 249.186 50.8016 248.857C50.4073 248.528 50.1545 248.06 50.0956 247.55L50.0808 247.317L50.0048 236.711L47.5161 240.091C47.0956 240.662 46.531 241.11 45.8801 241.391C45.2292 241.672 44.5154 241.774 43.8118 241.688L43.6786 241.908L43.5323 242.123L41.1593 245.343C40.562 246.153 39.6809 246.709 38.6919 246.898C37.703 247.088 36.6789 246.897 35.8242 246.365L35.5664 246.19L33.9564 245.003C33.1457 244.406 32.5902 243.525 32.4007 242.536C32.2111 241.547 32.4016 240.523 32.934 239.668L33.1094 239.41L35.4824 236.19C35.5848 236.051 35.696 235.918 35.8155 235.794C35.549 235.2 35.4315 234.55 35.4731 233.9C35.5148 233.25 35.7143 232.621 36.0545 232.066L36.2455 231.784L42.178 223.734C42.2803 223.595 42.3916 223.462 42.511 223.337C42.2445 222.743 42.127 222.093 42.1687 221.444C42.2103 220.794 42.4099 220.164 42.75 219.609L42.941 219.327L50.06 209.667ZM38.7024 238.563L36.3294 241.783L37.9394 242.97L40.3124 239.75L38.7024 238.563ZM45.3979 226.107L39.4654 234.157L44.2954 237.716L50.2279 229.666L45.3979 226.107ZM53.28 212.04L46.161 221.7L54.2109 227.633L61.3299 217.973L53.28 212.04Z" fill="white"/>
</g>
<g clip-path="url(#clip3_240_189)">
<path fill-rule="evenodd" clip-rule="evenodd" d="M212.299 524.264C212.847 523.521 213.655 523.012 214.561 522.838C215.468 522.664 216.407 522.839 217.19 523.327L217.426 523.488L224.805 528.926C225.549 529.474 226.058 530.281 226.232 531.188C226.405 532.094 226.231 533.033 225.743 533.817L225.582 534.053L219.056 542.908C218.447 543.734 217.554 544.232 216.611 544.364L216.296 544.394L225.486 553.022C225.824 553.343 226.027 553.781 226.053 554.246C226.08 554.711 225.929 555.169 225.63 555.527C225.331 555.884 224.908 556.115 224.445 556.171C223.983 556.228 223.516 556.106 223.14 555.831L222.976 555.694L215.916 549.066L215.986 558.749C215.994 559.22 215.821 559.676 215.502 560.022C215.183 560.368 214.743 560.578 214.274 560.609C213.804 560.64 213.341 560.489 212.979 560.188C212.618 559.887 212.386 559.458 212.332 558.99L212.318 558.776L212.249 549.054L209.968 552.153C209.582 552.676 209.064 553.087 208.468 553.344C207.871 553.601 207.217 553.695 206.572 553.617L206.45 553.818L206.316 554.015L204.14 556.966C203.593 557.71 202.785 558.219 201.879 558.393C200.972 558.566 200.033 558.392 199.25 557.904L199.014 557.743L197.538 556.655C196.795 556.108 196.285 555.3 196.112 554.393C195.938 553.487 196.113 552.548 196.601 551.765L196.761 551.528L198.937 548.577C199.03 548.449 199.132 548.328 199.242 548.213C198.998 547.669 198.89 547.073 198.928 546.477C198.966 545.882 199.149 545.305 199.461 544.796L199.636 544.537L205.074 537.158C205.168 537.031 205.27 536.909 205.38 536.795C205.135 536.25 205.028 535.655 205.066 535.059C205.104 534.464 205.287 533.886 205.599 533.378L205.774 533.119L212.299 524.264ZM201.888 550.752L199.713 553.704L201.189 554.791L203.364 551.84L201.888 550.752ZM208.026 539.334L202.588 546.713L207.015 549.976L212.453 542.597L208.026 539.334ZM215.251 526.439L208.725 535.294L216.104 540.733L222.63 531.878L215.251 526.439Z" fill="white"/>
</g>
<defs>
<clipPath id="clip0_240_189">
<rect width="48" height="48" fill="white" transform="translate(230.332) rotate(15.7175)"/>
</clipPath>
<clipPath id="clip1_240_189">
<rect width="44" height="44" fill="white" transform="translate(52.936 394.604) rotate(15.7175)"/>
</clipPath>
<clipPath id="clip2_240_189">
<rect width="48" height="48" fill="white" transform="translate(16.9331 216.829) rotate(-23.6102)"/>
</clipPath>
<clipPath id="clip3_240_189">
<rect width="44" height="44" fill="white" transform="translate(181.933 530.829) rotate(-23.6102)"/>
</clipPath>
</defs>
</svg>
