<svg width="304" height="374" viewBox="0 0 304 374" fill="none" xmlns="http://www.w3.org/2000/svg">
<path d="M26.7891 12.6417C26.5204 12.6427 26.2517 12.6504 25.9834 12.6647C14.8129 13.2668 7.01161 23.5734 7.63467 34.1467C8.43708 47.755 21.4032 57.2366 34.7171 56.395H34.7199C41.1863 55.9853 47.3653 53.3123 52.1633 49.0625L52.5705 48.7025L52.4182 48.1841L49.6203 38.7289L49.5062 38.3429L49.134 38.1816L41.4375 34.8323C42.8057 32.5783 43.5374 29.9192 43.4063 27.2232C43.0032 18.9309 35.6134 12.9843 27.5948 12.6563C27.3276 12.6452 27.0578 12.6405 26.7891 12.6417ZM26.8008 14.3639C26.9109 14.3633 27.0221 14.3653 27.1318 14.3667L26.4844 18.4909L26.4582 18.6522L26.4727 18.7099C23.9665 18.9039 21.452 19.77 19.3594 21.3307L18.0118 16.9734C20.3602 15.4829 23.0907 14.5453 26.0802 14.3841C26.3208 14.371 26.5611 14.3653 26.8008 14.3639ZM28.8868 14.4935C32.4746 14.9617 35.8243 16.6706 38.1943 19.2283L35.0068 21.0659L34.9717 21.086C33.1509 19.6204 30.7648 18.8106 28.26 18.684L28.2393 18.5976L28.8869 14.4937L28.8868 14.4935ZM16.5118 18.0417L17.8565 22.3963L17.915 22.5893C16.5425 23.9905 15.4574 25.7734 14.8359 27.9461C14.7726 28.1673 14.7154 28.3876 14.6601 28.6056L10.866 25.5442C12.1007 22.6119 14.0416 20.0008 16.5117 18.0418L16.5118 18.0417ZM39.3047 20.5875C40.6741 22.5075 41.5349 24.7866 41.6573 27.3039C41.6596 27.3518 41.6614 27.4001 41.6631 27.4479L38.3027 27.7128C38.2911 27.5216 38.2779 27.3294 38.2559 27.1368C38.0372 25.218 37.3165 23.6164 36.255 22.3416L39.3047 20.5875ZM28.418 24.7293C28.6379 24.7328 28.8554 24.7523 29.0715 24.7839L28.9336 28.404C28.5336 28.4584 28.146 28.5802 27.788 28.7641L23.6895 27.1224C24.7458 25.7391 26.3287 24.7893 28.1836 24.732C28.2617 24.7292 28.3399 24.7283 28.418 24.7293ZM30.8058 25.3599C32.154 26.0914 33.1338 27.4024 33.1699 28.9858C33.1835 29.579 33.0351 30.1848 32.7745 30.7138C32.6328 30.3096 32.4163 29.9346 32.1358 29.6079C31.7345 29.1384 31.214 28.7816 30.6271 28.5738L30.6827 28.5769L30.8059 25.3598L30.8058 25.3599ZM10.2333 27.2607L14.2676 30.5209C13.9017 32.8956 14.0266 35.0505 14.546 36.9693L9.6563 36.3646C9.52108 35.5974 9.43012 34.8233 9.38386 34.046C9.24746 31.7309 9.55167 29.4294 10.2334 27.2606L10.2333 27.2607ZM22.8223 28.6316L26.3878 30.0658C25.9434 30.7985 25.7936 31.6642 25.9512 32.4909L23.247 34.8064C22.6829 33.8137 22.3395 32.6891 22.2948 31.4713C22.2588 30.4913 22.4502 29.5197 22.8222 28.6315L22.8223 28.6316ZM41.5929 29.1788C41.2785 31.8502 40.0338 34.3661 38.1476 36.2033L36.0938 34.1841C37.3472 32.9613 38.0674 31.2885 38.2677 29.4436L41.5928 29.1786L41.5929 29.1788ZM26.6866 34.144C27.3895 35.1806 28.5595 35.8828 29.792 36.1282L30.0528 39.112C27.819 38.8665 25.7228 37.811 24.2726 36.2148L26.6866 34.144ZM34.6816 35.2327L36.8027 37.3178C35.3668 38.3242 33.675 38.9793 31.8105 39.1293L31.5557 36.1802C32.7601 36.0582 33.8009 35.7254 34.6817 35.2325L34.6816 35.2327ZM10.0519 38.1501L15.1817 38.7837C16.1084 40.9152 17.5609 42.6967 19.3623 44.106L14.3058 46.1709C12.3455 43.8549 10.8646 41.1488 10.0519 38.1501ZM48.0057 39.5727L48.0497 39.593L50.5722 48.1237C47.7321 50.542 44.4085 52.3889 40.8514 53.5064L41.6571 45.4854L41.6717 45.3414C44.127 43.9779 46.3174 42.0654 48.0058 39.5727H48.0057ZM21.0732 45.2753C23.5327 46.7334 26.443 47.6137 29.4725 47.8702L25.3475 53.492C21.6318 52.2832 18.2406 50.2292 15.5478 47.5275L21.0732 45.2753ZM39.8202 46.2457L39.0379 54.0075C37.5857 54.3546 36.1031 54.5809 34.6054 54.6757C32.07 54.8362 29.5489 54.5951 27.1347 54.0018L31.4149 48.164L31.5762 47.9451C34.3711 47.9156 37.203 47.3617 39.8202 46.2458V46.2457Z" fill="white"/>
<path d="M270.789 174.67C270.52 174.671 270.252 174.679 269.983 174.693C258.813 175.306 251.012 185.79 251.635 196.546C252.437 210.389 265.403 220.034 278.717 219.178H278.72C285.186 218.761 291.365 216.042 296.163 211.719L296.571 211.353L296.418 210.825L293.62 201.207L293.506 200.814L293.134 200.65L285.438 197.243C286.806 194.95 287.537 192.245 287.406 189.503C287.003 181.068 279.613 175.019 271.595 174.685C271.328 174.674 271.058 174.669 270.789 174.67ZM270.801 176.422C270.911 176.421 271.022 176.423 271.132 176.425L270.484 180.62L270.458 180.784L270.473 180.843C267.966 181.04 265.452 181.921 263.359 183.509L262.012 179.076C264.36 177.56 267.091 176.606 270.08 176.442C270.321 176.429 270.561 176.423 270.801 176.422ZM272.887 176.554C276.475 177.03 279.824 178.768 282.194 181.37L279.007 183.239L278.972 183.26C277.151 181.769 274.765 180.945 272.26 180.816L272.239 180.729L272.887 176.554L272.887 176.554ZM260.512 180.163L261.857 184.593L261.915 184.789C260.543 186.214 259.457 188.028 258.836 190.238C258.773 190.463 258.715 190.687 258.66 190.909L254.866 187.795C256.101 184.812 258.042 182.156 260.512 180.163L260.512 180.163ZM283.305 182.753C284.674 184.706 285.535 187.024 285.657 189.585C285.66 189.634 285.661 189.683 285.663 189.731L282.303 190.001C282.291 189.806 282.278 189.611 282.256 189.415C282.037 187.463 281.316 185.834 280.255 184.537L283.305 182.753ZM272.418 186.966C272.638 186.969 272.855 186.989 273.071 187.022L272.934 190.704C272.534 190.759 272.146 190.883 271.788 191.07L267.689 189.4C268.746 187.993 270.329 187.027 272.184 186.969C272.262 186.966 272.34 186.965 272.418 186.966ZM274.806 187.607C276.154 188.352 277.134 189.685 277.17 191.296C277.184 191.899 277.035 192.516 276.774 193.054C276.633 192.642 276.416 192.261 276.136 191.929C275.735 191.451 275.214 191.088 274.627 190.877L274.683 190.88L274.806 187.607L274.806 187.607ZM254.233 189.541L258.268 192.857C257.902 195.273 258.027 197.465 258.546 199.417L253.656 198.802C253.521 198.021 253.43 197.234 253.384 196.443C253.247 194.088 253.552 191.747 254.233 189.541L254.233 189.541ZM266.822 190.936L270.388 192.395C269.943 193.14 269.794 194.02 269.951 194.861L267.247 197.217C266.683 196.207 266.34 195.063 266.295 193.824C266.259 192.827 266.45 191.839 266.822 190.935L266.822 190.936ZM285.593 191.492C285.279 194.21 284.034 196.769 282.148 198.638L280.094 196.584C281.347 195.34 282.067 193.638 282.268 191.762L285.593 191.492L285.593 191.492ZM270.687 196.543C271.389 197.597 272.559 198.312 273.792 198.561L274.053 201.597C271.819 201.347 269.723 200.273 268.273 198.65L270.687 196.543ZM278.682 197.65L280.803 199.772C279.367 200.795 277.675 201.462 275.811 201.614L275.556 198.614C276.76 198.49 277.801 198.152 278.682 197.65L278.682 197.65ZM254.052 200.618L259.182 201.263C260.108 203.431 261.561 205.243 263.362 206.677L258.306 208.777C256.346 206.421 254.865 203.669 254.052 200.618ZM292.006 202.065L292.05 202.086L294.572 210.764C291.732 213.224 288.408 215.102 284.851 216.239L285.657 208.08L285.672 207.933C288.127 206.546 290.317 204.601 292.006 202.065H292.006ZM265.073 207.866C267.533 209.349 270.443 210.245 273.473 210.506L269.348 216.225C265.632 214.995 262.241 212.906 259.548 210.157L265.073 207.866ZM283.82 208.853L283.038 216.749C281.586 217.102 280.103 217.332 278.605 217.429C276.07 217.592 273.549 217.347 271.135 216.743L275.415 210.805L275.576 210.582C278.371 210.552 281.203 209.989 283.82 208.853V208.853Z" fill="white"/>
<g clip-path="url(#clip0_318_47)">
<path d="M272.794 12.5769L274.627 24.5201L283.861 32.313L271.918 34.1462L264.125 43.3804L262.292 31.4373L253.058 23.6444L265.001 21.8112L272.794 12.5769ZM270.177 21.8757L267.076 25.5117L262.357 26.2612L265.993 29.3621L266.742 34.0816L269.843 30.4457L274.563 29.6962L270.927 26.5953L270.177 21.8757ZM289.337 27.6209L288.396 21.6632L283.803 17.7529L289.756 16.8309L293.672 12.2192L294.588 18.1908L299.205 22.0872L293.228 23.0231L289.337 27.6209ZM281.752 54.574L280.811 48.6162L276.218 44.7059L282.171 43.7839L286.086 39.1722L287.003 45.1438L291.62 49.0403L285.643 49.9761L281.752 54.574Z" fill="white"/>
</g>
<g clip-path="url(#clip1_318_47)">
<path d="M69.6614 327.323L71.4946 339.266L80.7288 347.059L68.7857 348.892L60.9928 358.127L59.1596 346.183L49.9253 338.391L61.8685 336.557L69.6614 327.323ZM67.0445 336.622L63.9436 340.258L59.2241 341.007L62.8601 344.108L63.6096 348.828L66.7105 345.192L71.43 344.442L67.7941 341.341L67.0445 336.622ZM86.2046 342.367L85.2634 336.409L80.6709 332.499L86.6232 331.577L90.5389 326.965L91.4555 332.937L96.0727 336.833L90.0956 337.769L86.2046 342.367ZM78.6196 369.32L77.6783 363.362L73.0859 359.452L79.0382 358.53L82.9539 353.918L83.8705 359.89L88.4876 363.786L82.5106 364.722L78.6196 369.32Z" fill="white"/>
</g>
<g clip-path="url(#clip2_318_47)">
<path fill-rule="evenodd" clip-rule="evenodd" d="M33.1269 226.063C33.7243 225.253 34.6054 224.697 35.5943 224.508C36.5833 224.318 37.6074 224.509 38.4621 225.041L38.7199 225.216L46.7698 231.149C47.5805 231.746 48.136 232.627 48.3255 233.616C48.515 234.605 48.3246 235.629 47.7922 236.484L47.6167 236.742L40.4977 246.402C39.8332 247.303 38.8594 247.847 37.8309 247.991L37.4871 248.023L47.5123 257.436C47.8807 257.786 48.1021 258.264 48.1313 258.771C48.1605 259.279 47.9953 259.778 47.6694 260.168C47.3435 260.558 46.8813 260.81 46.3768 260.871C45.8722 260.933 45.3631 260.8 44.953 260.5L44.7744 260.351L37.0718 253.12L37.149 263.684C37.1575 264.197 36.9683 264.694 36.6205 265.072C36.2727 265.449 35.793 265.679 35.2808 265.713C34.7685 265.746 34.2628 265.582 33.8685 265.253C33.4742 264.924 33.2214 264.456 33.1625 263.946L33.1477 263.713L33.0717 253.107L30.583 256.487C30.1625 257.058 29.5979 257.506 28.947 257.787C28.2961 258.068 27.5823 258.17 26.8787 258.084L26.7455 258.304L26.5992 258.519L24.2262 261.739C23.6289 262.549 22.7478 263.105 21.7588 263.294C20.7699 263.484 19.7458 263.293 18.8911 262.761L18.6333 262.586L17.0233 261.399C16.2126 260.802 15.6571 259.921 15.4676 258.932C15.278 257.943 15.4685 256.919 16.0009 256.064L16.1763 255.806L18.5493 252.586C18.6517 252.447 18.7629 252.314 18.8824 252.19C18.6159 251.596 18.4984 250.946 18.54 250.296C18.5817 249.646 18.7812 249.017 19.1214 248.462L19.3124 248.18L25.2449 240.13C25.3472 239.991 25.4585 239.858 25.5779 239.733C25.3114 239.139 25.1939 238.489 25.2356 237.84C25.2772 237.19 25.4768 236.56 25.8169 236.005L26.0079 235.723L33.1269 226.063ZM21.7693 254.959L19.3963 258.179L21.0063 259.366L23.3793 256.146L21.7693 254.959ZM28.4648 242.503L22.5323 250.553L27.3623 254.112L33.2948 246.062L28.4648 242.503ZM36.3469 228.436L29.2279 238.096L37.2778 244.029L44.3968 234.369L36.3469 228.436Z" fill="white"/>
</g>
<g clip-path="url(#clip3_318_47)">
<path fill-rule="evenodd" clip-rule="evenodd" d="M260.946 308.25C261.935 308.061 262.959 308.252 263.813 308.785C264.668 309.317 265.29 310.153 265.556 311.124L265.626 311.428L267.502 321.25C267.691 322.239 267.501 323.263 266.968 324.118C266.435 324.972 265.599 325.594 264.628 325.86L264.324 325.93L252.538 328.182C251.438 328.392 250.354 328.129 249.501 327.536L249.227 327.326L250.189 341.044C250.221 341.552 250.06 342.052 249.736 342.444C249.413 342.837 248.952 343.091 248.448 343.156C247.944 343.221 247.434 343.091 247.022 342.794C246.61 342.496 246.327 342.053 246.23 341.554L246.2 341.323L245.46 330.785L238.34 338.588C237.997 338.971 237.521 339.207 237.009 339.248C236.497 339.289 235.99 339.131 235.591 338.808C235.192 338.485 234.933 338.021 234.867 337.511C234.801 337.002 234.933 336.487 235.236 336.073L235.384 335.891L242.533 328.058L238.411 328.847C237.715 328.98 236.996 328.925 236.327 328.689C235.659 328.453 235.065 328.043 234.607 327.502L234.36 327.573L234.107 327.631L230.178 328.382C229.189 328.571 228.165 328.38 227.311 327.847C226.457 327.315 225.834 326.479 225.569 325.508L225.499 325.204L225.124 323.239C224.934 322.25 225.125 321.226 225.658 320.372C226.191 319.518 227.026 318.895 227.998 318.63L228.302 318.56L232.23 317.809C232.4 317.777 232.572 317.755 232.744 317.744C232.952 317.128 233.308 316.571 233.779 316.122C234.251 315.674 234.825 315.347 235.452 315.171L235.784 315.094L245.606 313.217C245.776 313.185 245.947 313.163 246.12 313.152C246.328 312.536 246.683 311.979 247.155 311.53C247.627 311.082 248.201 310.756 248.828 310.579L249.16 310.502L260.946 308.25ZM232.981 321.738L229.052 322.489L229.428 324.453L233.357 323.702L232.981 321.738ZM246.357 317.146L236.535 319.023L237.661 324.916L247.483 323.039L246.357 317.146ZM261.697 312.179L249.91 314.431L251.787 324.253L263.574 322.001L261.697 312.179Z" fill="white"/>
</g>
<defs>
<clipPath id="clip0_318_47">
<rect width="48" height="48" fill="white" transform="translate(257.634) rotate(15.7175)"/>
</clipPath>
<clipPath id="clip1_318_47">
<rect width="48" height="48" fill="white" transform="translate(54.5015 314.746) rotate(15.7175)"/>
</clipPath>
<clipPath id="clip2_318_47">
<rect width="48" height="48" fill="white" transform="translate(0 233.225) rotate(-23.6102)"/>
</clipPath>
<clipPath id="clip3_318_47">
<rect width="48" height="48" fill="white" transform="translate(231.772 291) rotate(19.1831)"/>
</clipPath>
</defs>
</svg>
