<svg width="380" height="450" viewBox="0 0 380 450" fill="none" xmlns="http://www.w3.org/2000/svg">
<path d="M139.345 17.1018C64.2098 46.3497 8.44105 118.151 1.37124 198.74C-6.03702 273.541 16.3507 355.862 73.9371 406.538C160.906 484.038 319.751 453.284 373.1 350.829C381.298 334.761 386.337 311.262 363.473 310.446C346.275 310.346 333.051 315.455 313.646 320.363C306.752 322.221 299.519 324.129 292.123 325.786C268.269 331.472 235.552 336.82 211.635 330.669C143.758 314.714 96.6382 244.306 111.718 175.492C118.274 143.144 137.44 113.67 161.808 89.7319C177.565 73.8652 206.07 54.3206 221.864 40.3997C247.511 18.3571 251.008 1.93812 218.843 0.0175484C194.049 -0.409244 164.942 6.99686 139.584 17.0014L139.345 17.1018Z" fill="white"/>
</svg>
